<svg xmlns="http://www.w3.org/2000/svg" version="1.1" xmlns:xlink="http://www.w3.org/1999/xlink" xmlns:svgjs="http://svgjs.dev/svgjs" width="1000" height="1000" viewBox="0 0 1000 1000"><g transform="matrix(1,0,0,1,-0.14221556886212738,-0.14221556886229791)"><svg viewBox="0 0 334 334" data-background-color="#ffffff" preserveAspectRatio="xMidYMid meet" height="1000" width="1000" xmlns="http://www.w3.org/2000/svg" xmlns:xlink="http://www.w3.org/1999/xlink"><g id="tight-bounds" transform="matrix(1,0,0,1,0.04749999999998522,0.04750000000001364)"><svg viewBox="0 0 333.90454557049503 333.90454557049503" height="333.90454557049503" width="333.90454557049503"><g><svg></svg></g><g><svg viewBox="0 0 333.90454557049503 333.90454557049503" height="333.90454557049503" width="333.90454557049503"><g><path d="M0 166.952c0-92.205 74.747-166.952 166.952-166.952 92.205 0 166.952 74.747 166.953 166.952 0 92.205-74.747 166.952-166.953 166.953-92.205 0-166.952-74.747-166.952-166.953zM166.952 316.63c82.665 0 149.677-67.013 149.678-149.678 0-82.665-67.013-149.677-149.678-149.677-82.665 0-149.677 67.013-149.677 149.677 0 82.665 67.013 149.677 149.677 149.678z" data-fill-palette-color="tertiary" fill="#4b91f1" stroke="transparent"></path><ellipse rx="160.27418187383762" ry="160.27418187383762" cx="166.95227278524752" cy="166.95227278524752" fill="#4b91f1" stroke="transparent" stroke-width="0" fill-opacity="1" data-fill-palette-color="tertiary"></ellipse></g><g transform="matrix(1,0,0,1,109.21620054622119,71.17305217166896)"><svg viewBox="0 0 115.47214447805267 191.55844122715712" height="191.55844122715712" width="115.47214447805267"><g><svg viewBox="0 0 115.47214447805267 191.55844122715712" height="191.55844122715712" width="115.47214447805267"><g><svg viewBox="0 0 115.47214447805267 191.55844122715712" height="191.55844122715712" width="115.47214447805267"><g><svg viewBox="0 0 115.47214447805267 191.55844122715712" height="191.55844122715712" width="115.47214447805267"><g><svg viewBox="0 0 115.47214447805267 191.55844122715712" height="191.55844122715712" width="115.47214447805267" id="textblock"><g><svg viewBox="0 0 115.47214447805267 191.55844122715712" height="191.55844122715712" width="115.47214447805267"><g transform="matrix(1,0,0,1,0,0)"><svg width="115.47214447805267" viewBox="4.300000190734863 -32.099998474121094 19.349998474121094 32.099998474121094" height="191.55844122715712" data-palette-color="#ffffff"><path d="M15.55-4.15L23.3-4.4 23.6-3.95 23.25 0 4.3 0 4.65-9.65 4.3-32.1 23.35-32.1 23.65-31.65 23.25-27.7 15.65-27.9 9.55-27.85 9.4-18.5 15.2-18.4 20.5-18.55 20.85-18.15 20.45-14.2 14.8-14.35 9.35-14.25 9.3-10.1 9.45-4.2 15.55-4.15Z" opacity="1" transform="matrix(1,0,0,1,0,0)" fill="#ffffff" class="undefined-text-0" data-fill-palette-color="quaternary" id="text-0"></path></svg></g></svg></g></svg></g></svg></g><g></g></svg></g></svg></g></svg></g></svg></g><defs></defs></svg><rect width="333.90454557049503" height="333.90454557049503" fill="none" stroke="none" visibility="hidden"></rect></g></svg></g></svg>